HIERARCHY
ROOT Hips
{
    OFFSET 0.000000 0.000000 0.000000
    CHANNELS 6 Xposition Yposition Zposition Zrotation Xrotation Yrotation
    JOINT Spine
    {
        OFFSET -0.000000 14.517291 0.000000
        CHANNELS 3 Zrotation Xrotation Yrotation
        JOINT Spine1
        {
            OFFSET -0.000000 37.558300 0.000000
            CHANNELS 3 Zrotation Xrotation Yrotation
            JOINT Neck
            {
                OFFSET -0.000000 37.404057 3.400369
                CHANNELS 3 Zrotation Xrotation Yrotation
                JOINT Head
                {
                    OFFSET -0.000000 24.785618 -3.540803
                    CHANNELS 3 Zrotation Xrotation Yrotation
                    End Site
                    {
                        OFFSET -0.000000 35.408028 0.000000
                    }
                }
            }
            JOINT LeftShoulder
            {
                OFFSET 6.992933 33.973492 -0.192664
                CHANNELS 3 Zrotation Xrotation Yrotation
                JOINT LeftArm
                {
                    OFFSET 21.527611 0.000000 0.000000
                    CHANNELS 3 Zrotation Xrotation Yrotation
                    JOINT LeftForeArm
                    {
                        OFFSET 56.353916 0.000000 0.000000
                        CHANNELS 3 Zrotation Xrotation Yrotation
                        JOINT LeftHand
                        {
                            OFFSET 47.774071 0.000000 0.000000
                            CHANNELS 3 Zrotation Xrotation Yrotation
                            End Site
                            {
                                OFFSET 26.556021 0.000000 0.000000
                            }
                        }
                    }
                }
            }
            JOINT RightShoulder
            {
                OFFSET -7.065357 33.973492 -0.192664
                CHANNELS 3 Zrotation Xrotation Yrotation
                JOINT RightArm
                {
                    OFFSET -21.527611 0.000000 0.000000
                    CHANNELS 3 Zrotation Xrotation Yrotation
                    JOINT RightForeArm
                    {
                        OFFSET -56.353916 0.000000 0.000000
                        CHANNELS 3 Zrotation Xrotation Yrotation
                        JOINT RightHand
                        {
                            OFFSET -47.774071 0.000000 0.000000
                            CHANNELS 3 Zrotation Xrotation Yrotation
                            End Site
                            {
                                OFFSET -26.556021 0.000000 0.000000
                            }
                        }
                    }
                }
            }
        }
    }
    JOINT LeftUpLeg
    {
        OFFSET 17.704014 0.000000 0.000000
        CHANNELS 3 Zrotation Xrotation Yrotation
        JOINT LeftLeg
        {
            OFFSET -0.000000 -81.181816 0.000000
            CHANNELS 3 Zrotation Xrotation Yrotation
            JOINT LeftFoot
            {
                OFFSET -0.000000 -62.821102 0.000000
                CHANNELS 3 Zrotation Xrotation Yrotation
                JOINT LeftToeBase
                {
                    OFFSET -0.000000 -11.507608 26.556021
                    CHANNELS 3 Zrotation Xrotation Yrotation
                    End Site
                    {
                        OFFSET -0.000000 0.000000 7.081605
                    }
                }
            }
        }
    }
    JOINT RightUpLeg
    {
        OFFSET -17.704014 0.000000 0.000000
        CHANNELS 3 Zrotation Xrotation Yrotation
        JOINT RightLeg
        {
            OFFSET -0.000000 -81.181816 0.000000
            CHANNELS 3 Zrotation Xrotation Yrotation
            JOINT RightFoot
            {
                OFFSET -0.000000 -62.821102 0.000000
                CHANNELS 3 Zrotation Xrotation Yrotation
                JOINT RightToeBase
                {
                    OFFSET -0.000000 -11.507608 26.556021
                    CHANNELS 3 Zrotation Xrotation Yrotation
                    End Site
                    {
                        OFFSET -0.000000 0.000000 7.081605
                    }
                }
            }
        }
    }
}
MOTION
Frames:    5
Frame Time:    0.008333
25.542250    155.049545    -112.684143    -2.417950    -6.534721    27.340754    1.641822    1.345400    -0.918629    -1.795864    3.038769    -0.251626    8.528981    3.193678    -12.013321    7.235524    1.335530    -12.602144    6.407576    7.347962    -18.367250    -25.332655    24.670809    -61.720131    2.508820    -14.919675    -95.692665    12.123862    -13.374068    -11.062976    -6.910484    -0.554148    -1.655443    24.456688    -24.577303    54.297947    -15.390765    -8.162457    61.911270    -3.711212    -0.116138    36.756599    5.078187    -9.896493    -2.491677    -15.616534    40.148159    -14.153491    19.634577    -20.622446    45.408859    0.000000    0.000000    0.000000    -16.946508    -23.658001    -6.241575    12.030586    27.127930    -9.318540    16.521868    13.690788    -18.489830    0.000000    0.000000    0.000000    
25.435129    155.024246    -112.537476    -2.345445    -6.494096    27.444151    1.573044    1.355122    -0.910961    -1.794847    3.007753    -0.249774    8.480575    3.159119    -12.029305    7.261652    1.367547    -12.614279    6.378866    7.346889    -18.371628    -25.315710    24.649107    -61.694138    2.462930    -14.955846    -95.731438    12.093017    -13.460150    -11.113944    -6.817065    -0.390476    -1.702741    24.300007    -24.645855    54.418331    -15.501408    -8.320266    61.854675    -3.697758    -0.213816    36.764587    5.063226    -9.898621    -2.558639    -15.647691    40.187225    -14.158709    19.589642    -20.697254    45.407745    0.000000    0.000000    0.000000    -16.925846    -23.607500    -6.220602    12.012807    27.074636    -9.591910    16.074175    13.750777    -18.276402    0.000000    0.000000    0.000000    
25.324184    154.988937    -112.372086    -2.272934    -6.470193    27.582680    1.873597    1.446790    -1.283873    -2.254938    2.822750    -0.363908    8.101461    3.242389    -11.874345    7.661731    1.522210    -12.359442    6.137672    7.343840    -17.826565    -25.083618    24.775442    -61.514614    2.525687    -14.973478    -95.916168    12.202999    -13.398734    -10.986747    -6.940662    -0.308115    -1.238894    24.713192    -24.786291    54.587933    -15.442927    -8.154511    62.089565    -3.732071    -0.041440    36.526230    5.060913    -9.889785    -2.643808    -15.684024    40.239132    -14.169999    19.571716    -20.777689    45.400738    0.000000    0.000000    0.000000    -16.888889    -23.524488    -6.348818    11.844930    26.993376    -9.762496    15.681889    13.899599    -17.864920    0.000000    0.000000    0.000000    
25.207615    154.940903    -112.197998    -2.211188    -6.442590    27.726467    1.817000    1.420387    -1.315016    -2.275959    2.835792    -0.373836    8.082982    3.268514    -11.893650    7.708983    1.489001    -12.367262    6.139318    7.328337    -17.845051    -25.069489    24.762819    -61.501160    2.545016    -15.062015    -95.914581    12.198338    -13.466969    -10.988955    -6.947254    -0.322816    -1.233031    24.695271    -24.798216    54.593376    -15.462098    -8.171891    62.100632    -3.750063    -0.048752    36.465363    5.071825    -9.901142    -2.718684    -15.716348    40.326176    -14.173301    19.516975    -20.924904    45.391800    0.000000    0.000000    0.000000    -16.885843    -23.448040    -6.406338    11.785494    26.880196    -9.949393    15.364680    13.982911    -17.617300    0.000000    0.000000    0.000000    
25.092453    154.890015    -112.022247    -2.144289    -6.440722    27.848572    1.814741    1.457434    -1.326166    -2.343319    2.789329    -0.376590    8.035672    3.271429    -11.900243    7.758877    1.508607    -12.363216    6.109207    7.346169    -17.837357    -25.046482    24.704342    -61.492489    2.493087    -15.061834    -95.936607    12.185855    -13.524255    -11.022683    -6.996698    -0.326346    -1.259354    24.814337    -24.831425    54.676304    -15.449249    -8.118986    62.129189    -3.770728    -0.005541    36.488087    5.103753    -9.881607    -2.760709    -15.763274    40.414963    -14.156533    19.454144    -21.089071    45.353531    0.000000    0.000000    0.000000    -16.890171    -23.371716    -6.387199    11.811865    26.797125    -10.113180    15.074507    13.951798    -17.556572    0.000000    0.000000    0.000000    
